<svg xmlns="http://www.w3.org/2000/svg" xmlns:xlink="http://www.w3.org/1999/xlink" version="1.1" id="Capa_1" x="0px" y="0px" viewBox="0 0 385.15 385.15" style="enable-background:new 0 0 385.15 385.15;" xml:space="preserve">
<g>
	<g>
		<path d="M346.687,327.25l-93.6-103.2l1.76-1.6c6.72-6.08,5.92-17.68-1.92-26.32l-3.6-4c-6.082-8.181-17.497-10.183-26-4.56    l-2.24,2L52.127,2.61C49.15-0.655,44.09-0.888,40.825,2.088c-1.265,1.153-2.127,2.682-2.458,4.362    c-18.08,91.44,93.92,209.84,122.16,237.84l-1.84,1.68c-6.72,6.08-5.92,17.68,1.92,26.32l3.6,4c4.157,4.822,10.12,7.716,16.48,8    c3.529,0.079,6.958-1.178,9.6-3.52l1.76-1.6l50.08,55.36l43.44,48c2.964,3.262,8.008,3.512,11.28,0.56l49.28-44.56    C349.389,335.566,349.639,330.522,346.687,327.25z M52.367,26.77l156.88,173.52l-20.8,18.8l-16,14.48    C148.527,209.65,51.967,107.81,52.367,26.77z M186.927,262.13l-6.96,6.32c-1.623-0.522-3.065-1.493-4.16-2.8l-3.6-4    c-1.17-1.221-1.973-2.745-2.32-4.4l24.8-22.4l30.96-28l7.36-6.72c1.623,0.522,3.065,1.493,4.16,2.8l3.6,4    c1.166,1.223,1.969,2.747,2.32,4.4l-6.96,6.32L186.927,262.13z M203.567,268.61l37.36-33.84l44.72,49.44l-37.12,33.76    L203.567,268.61z M291.567,366.13l-32.72-36.24l37.68-33.84l32.72,36.24L291.567,366.13z" style="fill: rgb(216, 0, 39);"></path>
	</g>
</g>
<g>
</g>
<g>
</g>
<g>
</g>
<g>
</g>
<g>
</g>
<g>
</g>
<g>
</g>
<g>
</g>
<g>
</g>
<g>
</g>
<g>
</g>
<g>
</g>
<g>
</g>
<g>
</g>
<g>
</g>
</svg>